<?xml version="1.0" encoding="UTF-8"?>
<!DOCTYPE svg PUBLIC "-//W3C//DTD SVG 1.1//EN" "http://www.w3.org/Graphics/SVG/1.1/DTD/svg11.dtd">
<!-- Creator: CorelDRAW 2020 (64-Bit) -->
<svg xmlns="http://www.w3.org/2000/svg" xml:space="preserve" width="24in" height="18in" version="1.1" style="shape-rendering:geometricPrecision; text-rendering:geometricPrecision; image-rendering:optimizeQuality; fill-rule:evenodd; clip-rule:evenodd"
viewBox="0 0 24000 18000"
 xmlns:xlink="http://www.w3.org/1999/xlink"
 xmlns:xodm="http://www.corel.com/coreldraw/odm/2003">
 <defs>
  <style type="text/css">
   <![CDATA[
    .str1 {stroke:#373435;stroke-width:3;stroke-miterlimit:2.61313}
    .str0 {stroke:black;stroke-width:3;stroke-linecap:square;stroke-miterlimit:22.9256}
    .fil0 {fill:none}
    .fil1 {fill:#373435;fill-rule:nonzero}
   ]]>
  </style>
 </defs>
 <g id="Layer_x0020_1">
  <metadata id="CorelCorpID_0Corel-Layer"/>
  <g id="_2525326057728">
   <path class="fil0 str0" d="M2216.3 -72.32c-13.39,5.2 -9.94,5.2 -23.33,0"/>
   <path class="fil0 str1" d="M5228.68 3308.72l178.79 309.68 375.24 649.93m125 216.51l1257.28 2177.68 -3515.04 0 -3515.04 0 1757.52 -3044.12 1757.52 -3044.12 910.48 1576.99m72.17 125l275.04 476.37m62.5 108.25l186.38 322.82"/>
   <polyline class="fil0 str1" points="4632.59,2276.27 3652.2,2276.27 3652.2,2151.27 4560.43,2151.27 "/>
   <polyline class="fil0 str1" points="5228.68,3308.72 4278.46,4954.55 4170.2,4892.05 5156.51,3183.72 "/>
   <polyline class="fil0 str1" points="4970.13,2860.89 3028.34,3981.99 2965.84,3873.74 4907.63,2752.64 "/>
   <polyline class="fil0 str1" points="5907.71,4484.83 5907.71,5146 5782.71,5149.74 5782.71,4268.33 "/>
  </g>
  <path class="fil0 str1" d="M14161.17 813.06c18.31,14.37 48.5,48.1 51.49,51.44l0.07 0.07c4.99,2.83 8.6,5.48 12.2,8.11 3.56,2.61 7.14,5.23 12.12,8.04l0.39 0.31c2.64,2.92 4.67,5.26 6.49,7.37 7.13,8.24 11.35,13.12 22.57,19.44l0.34 0.26 2.14 2.19c9.79,10.04 50.62,51.92 71.31,68.19l46.66 40.7c0.97,0.79 5.76,5.69 12.72,12.8 18.8,19.22 53.61,54.81 70.69,68.53 14.74,11.84 34.61,32.3 55.15,53.46 21.96,22.6 44.69,46.02 62.64,60.43l5.6 6.3c6.08,6.96 8.09,9.26 18.73,15.26l0.2 0.14c6.52,5.24 18.31,17.86 32.4,32.96 20.93,22.41 46.99,50.33 68.2,67.38 3.26,2.61 12.76,12.56 24.95,25.32 21.82,22.84 52.35,54.8 70.75,69.58l100.6 105.73 4.01 2.19c1.91,1.02 2.86,1.54 3.79,2.22 0.93,0.69 1.73,1.46 3.31,2.99l3.72 3.56 -1.05 1.14 1.13 -1.06 100.61 111.18 -1.13 1.06 1.54 -0 0.02 4.67c0.03,2.9 0.04,4.38 -0.15,5.8 -0.19,1.5 -0.57,2.78 -1.33,5.35l-0.81 2.77 8.59 9.5c21.31,-5.58 24.66,-2.84 43.81,12.86l8.35 6.81c5.69,6.28 12.46,14.28 19.82,22.97 22.07,26.05 49.47,58.4 68.13,68.93l0.39 0.31c5.54,6.13 12.11,13.87 19.22,22.26 21.43,25.29 47.95,56.58 66.28,66.91l0.39 0.31c3.53,3.9 7.11,8.08 10.72,12.32 11.9,13.93 24.35,28.51 37.97,36.19l0.39 0.31c5.69,6.28 12.11,13.93 18.94,22.04 19.77,23.52 43.07,51.23 61.65,61.7l0.39 0.31c5.9,6.52 13.93,15.85 23.06,26.47 29.36,34.15 70.28,81.73 89.43,92.54l0.39 0.31c5.9,6.52 13.92,15.85 23.04,26.45 29.37,34.16 70.29,81.75 89.45,92.56l0.39 0.31c5.34,5.9 10.78,12.44 16.35,19.13 15.49,18.61 32.01,38.48 49.52,48.35l0.39 0.31c5.84,6.46 13.29,15.18 21.57,24.89 25.7,30.11 59.56,69.79 78.66,80.56l0.39 0.31 12.24 13.84 0.48 0 0 3.13 -2675.87 0 0 -1.57 -1.55 0 0 -1561.43 -125.66 0 0 1561.43 -1.55 0 0 1.57 -2644.78 0 0 -1.57 -1.16 -1.02 6.67 -7.71 5.91 -6.67 0.38 -0.31c19.54,-11.02 83.36,-84.21 124.07,-130.91 11.65,-13.36 21.43,-24.57 27.68,-31.48l0.39 -0.31c19.83,-11.18 86.11,-87.18 128.18,-135.43 12.02,-13.78 22.09,-25.32 28.48,-32.39l0.39 -0.31c10.91,-6.16 14.03,-9.74 20.58,-17.29l6.02 -6.81 0.38 -0.31c18.22,-10.28 37.89,-33.81 55.44,-54.83 6.23,-7.45 12.2,-14.6 17.79,-20.78l0.39 -0.31c17.52,-9.88 34.05,-29.74 49.54,-48.36 5.56,-6.69 11,-13.22 16.33,-19.12l0.39 -0.31c20.06,-11.32 65.24,-63.85 97.29,-101.12 10,-11.63 18.74,-21.79 25.02,-28.74l0.39 -0.31c14.15,-7.98 27.16,-23.28 39.55,-37.85 3.92,-4.6 7.79,-9.15 11.59,-13.36l0.39 -0.31c16.96,-9.56 32.91,-28.67 47.87,-46.61 5.28,-6.33 10.46,-12.54 15.54,-18.16l0.39 -0.31c11.69,-6.59 18.2,-14.13 26.54,-23.78 2.3,-2.66 4.75,-5.49 7.46,-8.48l3.81 -4.08c2.1,-2.28 3.15,-3.41 4.31,-4.31 1.17,-0.91 2.36,-1.56 4.68,-2.83l4.53 -2.5c5.45,-6.03 12.24,-13.98 19.73,-22.76 23.82,-27.91 54.84,-64.24 73.58,-74.9 1.22,-1.04 7.07,-7.18 15.49,-16 23,-24.11 65,-68.16 85.06,-84.28 5.74,-4.61 19.67,-19.61 36.59,-37.81 26.15,-28.15 59.41,-63.96 81.08,-81.41 2.77,-3.06 5.3,-5.99 7.73,-8.8 9.13,-10.57 16.95,-19.61 29.19,-26.57l0.3 -0.32c4.93,-5.18 48.1,-50.62 75.69,-72.8l0.52 -0.54c6.04,-6.27 57.61,-59.72 80.45,-78.1l0.92 -0.95c7.39,-7.63 54.86,-56.68 77.62,-74.98l245.36 -233.18 0.3 -0.22c6.86,-3.87 13.17,-8.67 19.46,-13.45 6.33,-4.81 12.67,-9.63 19.63,-13.58l68.57 -64.95 0.3 -0.22c3.99,-2.25 7.49,-4.5 10.97,-6.74 3.44,-2.21 6.9,-4.43 10.9,-6.7l5.18 -5.85c6.35,-7.28 8.45,-9.68 19.41,-15.87l39.12 -37.83 0.31 -0.24c8.5,-4.8 16.75,-10.69 24.91,-16.51 7.97,-5.69 15.87,-11.33 23.95,-15.91l19.46 -21.51 0.39 -0.31c8.01,-4.52 16.24,-10.37 24.44,-16.21 8.21,-5.83 16.41,-11.67 24.41,-16.21l19.46 -21.5 0.39 -0.31c5.72,-3.22 8.74,-5.56 11.24,-7.5 4.22,-3.28 7.07,-5.48 18.18,-8.8l29.47 -27.07c5.72,-3.23 8.73,-5.56 11.23,-7.5 4.23,-3.28 7.07,-5.48 18.19,-8.81l51.28 -45.87 0.7 -0.35c6.11,-1.34 8.47,-1.64 13.31,-2.24l3.46 -0.44c5.61,-5.88 8.83,-8.19 12.42,-10.75 2.6,-1.86 5.42,-3.87 9.47,-7.51l68.71 -38.47c4.54,-4.28 7.5,-6.43 10.38,-8.51 3.24,-2.33 6.38,-4.61 11.63,-9.91l0.65 -0.39 19.19 -5.71c4.24,-4 7.12,-6.12 9.85,-8.14 3.35,-2.48 6.5,-4.81 11.91,-10.52l0.7 -0.42c8.48,-2.35 14.81,-4.15 20.65,-7.11 5.8,-2.93 11.2,-7.08 17.9,-14.17l0.7 -0.42c8.37,-2.32 16.04,-5.76 23.49,-9.12 9.19,-4.13 18.08,-8.13 27.83,-9.84 13.77,-10.37 15.11,-11.38 31.93,-13.57l4.42 -3.25c4.17,-3.04 7.79,-5.67 12.3,-9.95l0.64 -0.37 203.76 -56.96c12.2,-2.61 24.76,-4.06 37.25,-5.5 12.32,-1.43 24.62,-2.84 36.37,-5.35l0.15 -0.02c46.12,-4.89 60.88,-3.24 90.47,0.05 7.31,0.81 15.54,1.73 25.17,2.66l122.74 16.28 0.43 0.12 4.99 2.28c3.06,1.4 4.53,2.08 5.92,2.39 1.31,0.29 2.79,0.33 5.59,0.39l7.48 0.23 0.85 0.3c1.87,1.4 3.11,2.41 4.04,3.16 1.97,1.58 2.38,1.91 7.72,4.7 5.13,0.28 7.7,0.15 9.18,0.07 1.13,-0.06 1.74,-0.09 2.46,0.1 0.81,0.22 1.37,0.63 2.54,1.48 1.03,0.76 2.65,1.94 5.57,3.8l21.73 2.67 0.72 0.28c11.65,8.39 13.42,8.62 25.56,10.17l3.19 0.41 0.7 0.28c4.22,3.03 13.09,7.52 22.87,12.02 13.39,6.16 28.42,12.33 35.65,14.89l4.49 1.78c7.83,3.06 9.07,3.55 17.76,11.76l3.11 0.4c13.42,1.69 17.13,2.16 28.89,13.25 11.78,3.32 20.3,8.22 28.32,12.83 8.62,4.95 16.67,9.59 27.59,11.44l0.59 0.24 122.63 81.3c1.38,0.82 2.89,0.88 4.79,0.94 4.66,0.17 11.39,0.42 24.76,9.98l0.17 0.14c5.53,5.24 9.39,8.23 13.5,10.38 4.13,2.16 8.61,3.54 15.33,5.53l0.61 0.35 29.31 26.99c5.95,3.35 11.93,6.97 17.89,10.57 7.7,4.65 15.43,9.32 23.63,13.74l0.33 0.23 31.77 29.7c4.84,2.73 9.46,5.6 14.07,8.45 5.71,3.54 11.44,7.09 17.64,10.42l0.33 0.24 34.21 32.4c6.2,3.34 11.92,6.88 17.63,10.42 4.6,2.85 9.22,5.71 14.12,8.48l117.91 103.11 9.53 5.26c3.31,1.85 6.65,3.73 9.94,5.49l0.32 0.23 88.2 81.23c5.03,2.85 8.66,5.51 12.27,8.15 3.56,2.61 7.15,5.23 12.11,8.04l0.19 0.13zm2176.93 3010.09l1.13 1.06 -2.08 0 0.95 -1.06zm-1226.91 -1355.82l2.27 2.11 -2.45 2.71 -2.27 -2.12 2.45 -2.7zm1226.91 -1355.8l2.27 2.11 -2.45 2.71 -2.27 -2.1 2.45 -2.72zm-3410.51 -1490.57l0 3.13 -4.13 0 0 -3.13 4.13 0z"/>
  <polygon class="fil1" points="13546.98,2222.57 13546.98,1983.91 13578.65,1983.91 13578.65,2082.24 13701.98,2082.24 13701.98,1983.91 13733.65,1983.91 13733.65,2222.57 13701.98,2222.57 13701.98,2110.24 13578.65,2110.24 13578.65,2222.57 "/>
  <path id="1" class="fil1" d="M13781.37 2289.07l-3.33 -27.11c6.44,1.72 12,2.61 16.78,2.61 6.56,0 11.78,-1.11 15.67,-3.28 3.94,-2.17 7.17,-5.22 9.67,-9.11 1.83,-2.94 4.83,-10.22 8.94,-21.89 0.56,-1.61 1.39,-4 2.61,-7.17l-65.67 -173.56 31.33 0 36.11 99.89c4.72,12.61 8.89,25.94 12.61,39.94 3.39,-13.17 7.39,-26.17 12.06,-38.94l36.89 -100.89 29.28 0 -65.39 176c-7.06,18.94 -12.56,31.94 -16.5,39.11 -5.22,9.61 -11.22,16.67 -17.94,21.17 -6.78,4.5 -14.83,6.72 -24.17,6.72 -5.67,0 -12,-1.17 -18.94,-3.5z"/>
  <path id="2" class="fil1" d="M13949.38 2288.91l0 -239.33 26.67 0 0 22.72c6.28,-8.78 13.39,-15.39 21.33,-19.78 7.89,-4.39 17.5,-6.61 28.78,-6.61 14.78,0 27.78,3.78 39.06,11.39 11.28,7.56 19.78,18.28 25.56,32.06 5.72,13.83 8.61,28.94 8.61,45.44 0,17.61 -3.17,33.5 -9.5,47.67 -6.33,14.11 -15.56,24.94 -27.67,32.5 -12.06,7.5 -24.78,11.28 -38.11,11.28 -9.78,0 -18.56,-2.06 -26.28,-6.17 -7.78,-4.11 -14.11,-9.28 -19.11,-15.56l0 84.39 -29.33 0zm26.67 -151.78c0,22.17 4.5,38.56 13.44,49.17 9,10.61 19.89,15.94 32.67,15.94 13,0 24.11,-5.5 33.33,-16.5 9.28,-11 13.89,-28 13.89,-51.06 0,-22 -4.5,-38.44 -13.56,-49.39 -9.06,-10.94 -19.83,-16.39 -32.39,-16.39 -12.44,0 -23.44,5.83 -33,17.44 -9.61,11.67 -14.39,28.56 -14.39,50.78z"/>
  <path id="3" class="fil1" d="M14252.77 2166.57l30.33 4c-4.72,17.61 -13.56,31.33 -26.44,41.06 -12.89,9.72 -29.33,14.61 -49.39,14.61 -25.22,0 -45.22,-7.78 -60,-23.33 -14.78,-15.5 -22.17,-37.33 -22.17,-65.39 0,-29 7.44,-51.56 22.39,-67.56 14.94,-16.06 34.33,-24.06 58.17,-24.06 23.06,0 41.89,7.83 56.5,23.56 14.61,15.72 21.94,37.83 21.94,66.33 0,1.72 -0.06,4.33 -0.17,7.78l-128.83 0c1.11,18.94 6.44,33.5 16.11,43.56 9.61,10.06 21.67,15.11 36.06,15.11 10.72,0 19.89,-2.83 27.44,-8.5 7.61,-5.67 13.61,-14.72 18.06,-27.17zm-96 -47l96.33 0c-1.28,-14.56 -5,-25.44 -11.06,-32.72 -9.28,-11.28 -21.39,-16.94 -36.22,-16.94 -13.44,0 -24.72,4.5 -33.89,13.5 -9.11,9 -14.17,21.06 -15.17,36.17z"/>
  <path id="4" class="fil1" d="M14319.82 2222.57l0 -173 26.33 0 0 26.5c6.72,-12.28 12.94,-20.39 18.67,-24.28 5.72,-3.94 12,-5.89 18.83,-5.89 9.89,0 19.94,3.11 30.17,9.28l-10.44 27.06c-7.11,-4 -14.22,-6 -21.33,-6 -6.39,0 -12.11,1.94 -17.17,5.78 -5.06,3.83 -8.67,9.17 -10.83,16 -3.28,10.39 -4.89,21.78 -4.89,34.17l0 90.39 -29.33 0z"/>
  <path id="5" class="fil1" d="M14458.16 2222.57l-27.33 0 0 -238.67 29.33 0 0 85.17c12.39,-15.44 28.17,-23.17 47.39,-23.17 10.61,0 20.72,2.11 30.22,6.39 9.5,4.28 17.28,10.33 23.44,18.06 6.11,7.78 10.94,17.11 14.39,28.06 3.5,10.89 5.22,22.61 5.22,35.06 0,29.56 -7.33,52.44 -21.94,68.56 -14.67,16.17 -32.22,24.22 -52.72,24.22 -20.39,0 -36.39,-8.5 -48,-25.44l0 21.78zm-0.33 -87.78c0,20.67 2.83,35.61 8.44,44.83 9.22,15.06 21.67,22.61 37.39,22.61 12.83,0 23.89,-5.56 33.17,-16.67 9.33,-11.11 14,-27.67 14,-49.67 0,-22.56 -4.44,-39.17 -13.39,-49.89 -8.94,-10.72 -19.78,-16.11 -32.44,-16.11 -12.83,0 -23.89,5.56 -33.17,16.67 -9.33,11.11 -14,27.17 -14,48.22z"/>
  <path id="6" class="fil1" d="M14605.55 2136.07c0,-31.94 8.89,-55.61 26.72,-71 14.83,-12.78 33,-19.17 54.39,-19.17 23.72,0 43.17,7.78 58.28,23.33 15.06,15.5 22.61,37 22.61,64.39 0,22.22 -3.33,39.67 -10,52.39 -6.67,12.72 -16.39,22.61 -29.17,29.67 -12.72,7.06 -26.67,10.56 -41.72,10.56 -24.22,0 -43.78,-7.72 -58.72,-23.22 -14.94,-15.5 -22.39,-37.83 -22.39,-66.94zm30 0.06c0,22.11 4.83,38.67 14.5,49.61 9.72,11 21.89,16.5 36.61,16.5 14.56,0 26.67,-5.5 36.39,-16.56 9.67,-11.06 14.5,-27.89 14.5,-50.5 0,-21.33 -4.89,-37.5 -14.61,-48.44 -9.72,-11 -21.83,-16.5 -36.28,-16.5 -14.72,0 -26.89,5.44 -36.61,16.39 -9.67,10.94 -14.5,27.44 -14.5,49.5z"/>
  <polygon id="7" class="fil1" points="14801.27,2222.57 14801.27,1983.91 14830.6,1983.91 14830.6,2222.57 "/>
  <path id="8" class="fil1" d="M14988.99 2200.91c-10.89,9.28 -21.39,15.78 -31.44,19.61 -10.06,3.83 -20.83,5.72 -32.39,5.72 -19,0 -33.61,-4.61 -43.83,-13.89 -10.22,-9.22 -15.33,-21.06 -15.33,-35.44 0,-8.44 1.94,-16.17 5.78,-23.17 3.89,-7 8.94,-12.56 15.17,-16.78 6.28,-4.22 13.28,-7.44 21.11,-9.61 5.78,-1.5 14.5,-2.94 26.11,-4.39 23.67,-2.78 41.17,-6.17 52.33,-10.06 0.11,-4 0.17,-6.56 0.17,-7.61 0,-11.89 -2.78,-20.28 -8.33,-25.17 -7.5,-6.61 -18.67,-9.89 -33.44,-9.89 -13.83,0 -24.06,2.44 -30.61,7.28 -6.61,4.83 -11.44,13.39 -14.61,25.72l-28.67 -4c2.61,-12.28 6.89,-22.22 12.89,-29.78 6,-7.56 14.67,-13.33 26,-17.44 11.28,-4.06 24.44,-6.11 39.33,-6.11 14.78,0 26.83,1.72 36.11,5.22 9.22,3.5 16.06,7.83 20.39,13.11 4.33,5.28 7.39,11.94 9.17,20 0.94,5 1.44,14 1.44,26.94l0 38.89c0,27.17 0.61,44.33 1.83,51.61 1.17,7.28 3.61,14.22 7.17,20.89l-30.67 0c-2.94,-6.17 -4.83,-13.39 -5.67,-21.67zm-2.33 -65c-10.67,4.33 -26.67,8 -48,11 -12.11,1.72 -20.67,3.67 -25.67,5.83 -5,2.17 -8.83,5.33 -11.56,9.44 -2.72,4.17 -4.11,8.78 -4.11,13.89 0,7.72 2.94,14.22 8.89,19.39 5.94,5.17 14.61,7.78 26,7.78 11.28,0 21.33,-2.44 30.17,-7.39 8.78,-4.89 15.28,-11.61 19.39,-20.11 3.17,-6.61 4.72,-16.33 4.72,-29.17l0.17 -10.67z"/>
  <g id="_2525326076160">
   <path class="fil0 str1" d="M6069.72 3514.24c41.39,-959.65 1032.31,-1727.5 2248.65,-1727.5 1242.64,0 2250,801.41 2250,1790 0,988.59 -1007.36,1790 -2250,1790 -1216.35,0 -2207.27,-767.85 -2248.65,-1727.5"/>
   <polyline class="fil0 str1" points="6069.72,3514.24 8318.38,3514.24 8318.38,3639.24 6069.72,3639.24 "/>
   <polygon class="fil1" points="7772.98,4904.13 7772.98,4665.46 7945.32,4665.46 7945.32,4693.46 7804.65,4693.46 7804.65,4766.8 7936.32,4766.8 7936.32,4794.8 7804.65,4794.8 7804.65,4876.13 7950.98,4876.13 7950.98,4904.13 "/>
   <polygon id="1" class="fil1" points="7990.32,4904.13 7990.32,4665.46 8019.65,4665.46 8019.65,4904.13 "/>
   <polygon id="2" class="fil1" points="8064.37,4904.13 8064.37,4665.46 8093.7,4665.46 8093.7,4904.13 "/>
   <path id="3" class="fil1" d="M8139.09 4698.8l0 -33.33 29.33 0 0 33.33 -29.33 0zm0 205.33l0 -173 29.33 0 0 173 -29.33 0z"/>
   <path id="4" class="fil1" d="M8213.15 4970.46l0 -239.33 26.67 0 0 22.72c6.28,-8.78 13.39,-15.39 21.33,-19.78 7.89,-4.39 17.5,-6.61 28.78,-6.61 14.78,0 27.78,3.78 39.06,11.39 11.28,7.56 19.78,18.28 25.56,32.06 5.72,13.83 8.61,28.94 8.61,45.44 0,17.61 -3.17,33.5 -9.5,47.67 -6.33,14.11 -15.56,24.94 -27.67,32.5 -12.06,7.5 -24.78,11.28 -38.11,11.28 -9.78,0 -18.56,-2.06 -26.28,-6.17 -7.78,-4.11 -14.11,-9.28 -19.11,-15.56l0 84.39 -29.33 0zm26.67 -151.78c0,22.17 4.5,38.56 13.44,49.17 9,10.61 19.89,15.94 32.67,15.94 13,0 24.11,-5.5 33.33,-16.5 9.28,-11 13.89,-28 13.89,-51.06 0,-22 -4.5,-38.44 -13.56,-49.39 -9.06,-10.94 -19.83,-16.39 -32.39,-16.39 -12.44,0 -23.44,5.83 -33,17.44 -9.61,11.67 -14.39,28.56 -14.39,50.78z"/>
   <path id="5" class="fil1" d="M8386.87 4852.46l29 -4.67c1.61,11.61 6.17,20.5 13.61,26.72 7.44,6.17 17.89,9.28 31.22,9.28 13.5,0 23.5,-2.72 30.06,-8.22 6.5,-5.44 9.78,-11.89 9.78,-19.28 0,-6.61 -2.94,-11.83 -8.78,-15.61 -4.11,-2.61 -14.11,-5.89 -30,-9.94 -21.44,-5.39 -36.28,-10.06 -44.61,-14 -8.28,-4 -14.56,-9.44 -18.83,-16.44 -4.28,-6.94 -6.44,-14.67 -6.44,-23.11 0,-7.72 1.78,-14.83 5.28,-21.39 3.56,-6.56 8.33,-12 14.39,-16.33 4.56,-3.33 10.78,-6.17 18.61,-8.5 7.89,-2.33 16.28,-3.5 25.28,-3.5 13.56,0 25.44,1.94 35.67,5.89 10.28,3.89 17.83,9.22 22.72,15.89 4.83,6.72 8.22,15.67 10.06,26.89l-28.67 4c-1.28,-9 -5.06,-16.06 -11.28,-21.11 -6.22,-5.06 -15,-7.56 -26.39,-7.56 -13.39,0 -23,2.22 -28.72,6.67 -5.72,4.44 -8.61,9.67 -8.61,15.61 0,3.78 1.17,7.22 3.56,10.28 2.39,3.11 6.11,5.72 11.22,7.78 2.94,1.11 11.5,3.61 25.83,7.5 20.67,5.5 35.11,10.06 43.33,13.56 8.22,3.5 14.67,8.67 19.33,15.33 4.72,6.72 7.06,15.06 7.06,25.06 0,9.72 -2.83,18.89 -8.56,27.5 -5.72,8.61 -13.94,15.28 -24.67,20 -10.78,4.72 -22.94,7.06 -36.5,7.06 -22.44,0 -39.61,-4.67 -51.39,-13.94 -11.78,-9.33 -19.28,-23.11 -22.56,-41.39z"/>
   <path id="6" class="fil1" d="M8683.21 4848.13l30.33 4c-4.72,17.61 -13.56,31.33 -26.44,41.06 -12.89,9.72 -29.33,14.61 -49.39,14.61 -25.22,0 -45.22,-7.78 -60,-23.33 -14.78,-15.5 -22.17,-37.33 -22.17,-65.39 0,-29 7.44,-51.56 22.39,-67.56 14.94,-16.06 34.33,-24.06 58.17,-24.06 23.06,0 41.89,7.83 56.5,23.56 14.61,15.72 21.94,37.83 21.94,66.33 0,1.72 -0.06,4.33 -0.17,7.78l-128.83 0c1.11,18.94 6.44,33.5 16.11,43.56 9.61,10.06 21.67,15.11 36.06,15.11 10.72,0 19.89,-2.83 27.44,-8.5 7.61,-5.67 13.61,-14.72 18.06,-27.17zm-96 -47l96.33 0c-1.28,-14.56 -5,-25.44 -11.06,-32.72 -9.28,-11.28 -21.39,-16.94 -36.22,-16.94 -13.44,0 -24.72,4.5 -33.89,13.5 -9.11,9 -14.17,21.06 -15.17,36.17z"/>
  </g>
  <g id="_2525326076400">
   <path class="fil0 str0" d="M6931.96 18.48c-13.39,5.2 -9.94,5.2 -23.33,0"/>
   <path class="fil0 str1" d="M4757.89 1173.94c37.83,-517.76 469.89,-926.07 997.31,-926.07 552.29,0 1000,447.71 1000,1000 0,552.29 -447.71,1000 -1000,1000 -535.16,0 -972.14,-420.37 -998.72,-948.93"/>
   <polyline class="fil0 str1" points="4757.89,1173.94 5762.82,1173.94 5762.82,1298.94 4756.48,1298.94 "/>
   <path class="fil1" d="M5572.49 1815.28l31.67 8c-6.61,25.94 -18.5,45.67 -35.67,59.28 -17.17,13.61 -38.17,20.44 -63,20.44 -25.67,0 -46.56,-5.22 -62.67,-15.72 -16.11,-10.44 -28.33,-25.61 -36.72,-45.44 -8.39,-19.89 -12.61,-41.17 -12.61,-63.94 0,-24.83 4.72,-46.5 14.22,-65 9.5,-18.5 23,-32.56 40.5,-42.17 17.5,-9.61 36.78,-14.39 57.78,-14.39 23.89,0 43.94,6.06 60.17,18.22 16.28,12.17 27.61,29.22 34,51.22l-31 7.33c-5.5,-17.33 -13.56,-30 -24.06,-37.89 -10.5,-7.94 -23.72,-11.89 -39.67,-11.89 -18.28,0 -33.61,4.39 -45.89,13.17 -12.28,8.78 -20.94,20.61 -25.89,35.39 -5,14.83 -7.5,30.11 -7.5,45.83 0,20.28 2.94,38 8.83,53.11 5.89,15.17 15.06,26.44 27.5,33.94 12.44,7.5 25.89,11.22 40.39,11.22 17.67,0 32.56,-5.11 44.78,-15.28 12.22,-10.22 20.5,-25.33 24.83,-45.44z"/>
   <path id="1" class="fil1" d="M5639.54 1693.67l0 -33.33 29.33 0 0 33.33 -29.33 0zm0 205.33l0 -173 29.33 0 0 173 -29.33 0z"/>
   <path id="2" class="fil1" d="M5713.26 1899l0 -173 26.33 0 0 26.5c6.72,-12.28 12.94,-20.39 18.67,-24.28 5.72,-3.94 12,-5.89 18.83,-5.89 9.89,0 19.94,3.11 30.17,9.28l-10.44 27.06c-7.11,-4 -14.22,-6 -21.33,-6 -6.39,0 -12.11,1.94 -17.17,5.78 -5.06,3.83 -8.67,9.17 -10.83,16 -3.28,10.39 -4.89,21.78 -4.89,34.17l0 90.39 -29.33 0z"/>
   <path id="3" class="fil1" d="M5937.6 1835.67l28.67 4c-3.17,19.72 -11.17,35.11 -24.11,46.28 -12.94,11.17 -28.89,16.72 -47.72,16.72 -23.61,0 -42.61,-7.72 -56.94,-23.17 -14.39,-15.44 -21.56,-37.56 -21.56,-66.33 0,-18.67 3.11,-34.94 9.28,-48.94 6.17,-13.94 15.56,-24.44 28.22,-31.39 12.61,-7 26.33,-10.5 41.22,-10.5 18.72,0 34.11,4.72 46,14.22 11.94,9.5 19.61,23 22.94,40.44l-28.33 4.33c-2.72,-11.61 -7.5,-20.33 -14.44,-26.22 -6.89,-5.83 -15.22,-8.78 -25,-8.78 -14.78,0 -26.78,5.28 -36.06,15.83 -9.22,10.61 -13.83,27.28 -13.83,50.17 0,23.22 4.44,40.06 13.33,50.56 8.94,10.5 20.56,15.78 34.83,15.78 11.56,0 21.17,-3.5 28.83,-10.56 7.72,-7 12.61,-17.83 14.67,-32.44z"/>
   <polygon id="4" class="fil1" points="5990.6,1899 5990.6,1660.33 6019.93,1660.33 6019.93,1899 "/>
   <path id="5" class="fil1" d="M6183.32 1843l30.33 4c-4.72,17.61 -13.56,31.33 -26.44,41.06 -12.89,9.72 -29.33,14.61 -49.39,14.61 -25.22,0 -45.22,-7.78 -60,-23.33 -14.78,-15.5 -22.17,-37.33 -22.17,-65.39 0,-29 7.44,-51.56 22.39,-67.56 14.94,-16.06 34.33,-24.06 58.17,-24.06 23.06,0 41.89,7.83 56.5,23.56 14.61,15.72 21.94,37.83 21.94,66.33 0,1.72 -0.06,4.33 -0.17,7.78l-128.83 0c1.11,18.94 6.44,33.5 16.11,43.56 9.61,10.06 21.67,15.11 36.06,15.11 10.72,0 19.89,-2.83 27.44,-8.5 7.61,-5.67 13.61,-14.72 18.06,-27.17zm-96 -47l96.33 0c-1.28,-14.56 -5,-25.44 -11.06,-32.72 -9.28,-11.28 -21.39,-16.94 -36.22,-16.94 -13.44,0 -24.72,4.5 -33.89,13.5 -9.11,9 -14.17,21.06 -15.17,36.17z"/>
  </g>
  <line class="fil0 str1" x1="13050.05" y1="6555.91" x2="16478.55" y2= "6555.91" />
  <path class="fil1" d="M14092.49 6248.74l0 -238.67 90.11 0c15.83,0 27.94,0.78 36.33,2.28 11.72,1.94 21.56,5.67 29.5,11.11 7.94,5.5 14.33,13.17 19.17,23 4.83,9.83 7.22,20.67 7.22,32.5 0,20.22 -6.44,37.39 -19.39,51.39 -12.89,14.06 -36.28,21.06 -70.06,21.06l-61.22 0 0 97.33 -31.67 0zm31.67 -125.33l61.67 0c20.44,0 34.89,-3.78 43.5,-11.39 8.56,-7.61 12.83,-18.28 12.83,-32.11 0,-9.94 -2.5,-18.5 -7.56,-25.61 -5.06,-7.11 -11.72,-11.83 -19.94,-14.11 -5.33,-1.39 -15.17,-2.11 -29.44,-2.11l-61.06 0 0 85.33z"/>
  <path id="1" class="fil1" d="M14424.16 6227.08c-10.89,9.28 -21.39,15.78 -31.44,19.61 -10.06,3.83 -20.83,5.72 -32.39,5.72 -19,0 -33.61,-4.61 -43.83,-13.89 -10.22,-9.22 -15.33,-21.06 -15.33,-35.44 0,-8.44 1.94,-16.17 5.78,-23.17 3.89,-7 8.94,-12.56 15.17,-16.78 6.28,-4.22 13.28,-7.44 21.11,-9.61 5.78,-1.5 14.5,-2.94 26.11,-4.39 23.67,-2.78 41.17,-6.17 52.33,-10.06 0.11,-4 0.17,-6.56 0.17,-7.61 0,-11.89 -2.78,-20.28 -8.33,-25.17 -7.5,-6.61 -18.67,-9.89 -33.44,-9.89 -13.83,0 -24.06,2.44 -30.61,7.28 -6.61,4.83 -11.44,13.39 -14.61,25.72l-28.67 -4c2.61,-12.28 6.89,-22.22 12.89,-29.78 6,-7.56 14.67,-13.33 26,-17.44 11.28,-4.06 24.44,-6.11 39.33,-6.11 14.78,0 26.83,1.72 36.11,5.22 9.22,3.5 16.06,7.83 20.39,13.11 4.33,5.28 7.39,11.94 9.17,20 0.94,5 1.44,14 1.44,26.94l0 38.89c0,27.17 0.61,44.33 1.83,51.61 1.17,7.28 3.61,14.22 7.17,20.89l-30.67 0c-2.94,-6.17 -4.83,-13.39 -5.67,-21.67zm-2.33 -65c-10.67,4.33 -26.67,8 -48,11 -12.11,1.72 -20.67,3.67 -25.67,5.83 -5,2.17 -8.83,5.33 -11.56,9.44 -2.72,4.17 -4.11,8.78 -4.11,13.89 0,7.72 2.94,14.22 8.89,19.39 5.94,5.17 14.61,7.78 26,7.78 11.28,0 21.33,-2.44 30.17,-7.39 8.78,-4.89 15.28,-11.61 19.39,-20.11 3.17,-6.61 4.72,-16.33 4.72,-29.17l0.17 -10.67z"/>
  <path id="2" class="fil1" d="M14496.21 6248.74l0 -173 26.33 0 0 26.5c6.72,-12.28 12.94,-20.39 18.67,-24.28 5.72,-3.94 12,-5.89 18.83,-5.89 9.89,0 19.94,3.11 30.17,9.28l-10.44 27.06c-7.11,-4 -14.22,-6 -21.33,-6 -6.39,0 -12.11,1.94 -17.17,5.78 -5.06,3.83 -8.67,9.17 -10.83,16 -3.28,10.39 -4.89,21.78 -4.89,34.17l0 90.39 -29.33 0z"/>
  <path id="3" class="fil1" d="M14720.55 6227.08c-10.89,9.28 -21.39,15.78 -31.44,19.61 -10.06,3.83 -20.83,5.72 -32.39,5.72 -19,0 -33.61,-4.61 -43.83,-13.89 -10.22,-9.22 -15.33,-21.06 -15.33,-35.44 0,-8.44 1.94,-16.17 5.78,-23.17 3.89,-7 8.94,-12.56 15.17,-16.78 6.28,-4.22 13.28,-7.44 21.11,-9.61 5.78,-1.5 14.5,-2.94 26.11,-4.39 23.67,-2.78 41.17,-6.17 52.33,-10.06 0.11,-4 0.17,-6.56 0.17,-7.61 0,-11.89 -2.78,-20.28 -8.33,-25.17 -7.5,-6.61 -18.67,-9.89 -33.44,-9.89 -13.83,0 -24.06,2.44 -30.61,7.28 -6.61,4.83 -11.44,13.39 -14.61,25.72l-28.67 -4c2.61,-12.28 6.89,-22.22 12.89,-29.78 6,-7.56 14.67,-13.33 26,-17.44 11.28,-4.06 24.44,-6.11 39.33,-6.11 14.78,0 26.83,1.72 36.11,5.22 9.22,3.5 16.06,7.83 20.39,13.11 4.33,5.28 7.39,11.94 9.17,20 0.94,5 1.44,14 1.44,26.94l0 38.89c0,27.17 0.61,44.33 1.83,51.61 1.17,7.28 3.61,14.22 7.17,20.89l-30.67 0c-2.94,-6.17 -4.83,-13.39 -5.67,-21.67zm-2.33 -65c-10.67,4.33 -26.67,8 -48,11 -12.11,1.72 -20.67,3.67 -25.67,5.83 -5,2.17 -8.83,5.33 -11.56,9.44 -2.72,4.17 -4.11,8.78 -4.11,13.89 0,7.72 2.94,14.22 8.89,19.39 5.94,5.17 14.61,7.78 26,7.78 11.28,0 21.33,-2.44 30.17,-7.39 8.78,-4.89 15.28,-11.61 19.39,-20.11 3.17,-6.61 4.72,-16.33 4.72,-29.17l0.17 -10.67z"/>
  <path id="4" class="fil1" d="M14819.94 6248.74l-27.33 0 0 -238.67 29.33 0 0 85.17c12.39,-15.44 28.17,-23.17 47.39,-23.17 10.61,0 20.72,2.11 30.22,6.39 9.5,4.28 17.28,10.33 23.44,18.06 6.11,7.78 10.94,17.11 14.39,28.06 3.5,10.89 5.22,22.61 5.22,35.06 0,29.56 -7.33,52.44 -21.94,68.56 -14.67,16.17 -32.22,24.22 -52.72,24.22 -20.39,0 -36.39,-8.5 -48,-25.44l0 21.78zm-0.33 -87.78c0,20.67 2.83,35.61 8.44,44.83 9.22,15.06 21.67,22.61 37.39,22.61 12.83,0 23.89,-5.56 33.17,-16.67 9.33,-11.11 14,-27.67 14,-49.67 0,-22.56 -4.44,-39.17 -13.39,-49.89 -8.94,-10.72 -19.78,-16.11 -32.44,-16.11 -12.83,0 -23.89,5.56 -33.17,16.67 -9.33,11.11 -14,27.17 -14,48.22z"/>
  <path id="5" class="fil1" d="M14967.33 6162.24c0,-31.94 8.89,-55.61 26.72,-71 14.83,-12.78 33,-19.17 54.39,-19.17 23.72,0 43.17,7.78 58.28,23.33 15.06,15.5 22.61,37 22.61,64.39 0,22.22 -3.33,39.67 -10,52.39 -6.67,12.72 -16.39,22.61 -29.17,29.67 -12.72,7.06 -26.67,10.56 -41.72,10.56 -24.22,0 -43.78,-7.72 -58.72,-23.22 -14.94,-15.5 -22.39,-37.83 -22.39,-66.94zm30 0.06c0,22.11 4.83,38.67 14.5,49.61 9.72,11 21.89,16.5 36.61,16.5 14.56,0 26.67,-5.5 36.39,-16.56 9.67,-11.06 14.5,-27.89 14.5,-50.5 0,-21.33 -4.89,-37.5 -14.61,-48.44 -9.72,-11 -21.83,-16.5 -36.28,-16.5 -14.72,0 -26.89,5.44 -36.61,16.39 -9.67,10.94 -14.5,27.44 -14.5,49.5z"/>
  <polygon id="6" class="fil1" points="15163.05,6248.74 15163.05,6010.07 15192.38,6010.07 15192.38,6248.74 "/>
  <path id="7" class="fil1" d="M15350.77 6227.08c-10.89,9.28 -21.39,15.78 -31.44,19.61 -10.06,3.83 -20.83,5.72 -32.39,5.72 -19,0 -33.61,-4.61 -43.83,-13.89 -10.22,-9.22 -15.33,-21.06 -15.33,-35.44 0,-8.44 1.94,-16.17 5.78,-23.17 3.89,-7 8.94,-12.56 15.17,-16.78 6.28,-4.22 13.28,-7.44 21.11,-9.61 5.78,-1.5 14.5,-2.94 26.11,-4.39 23.67,-2.78 41.17,-6.17 52.33,-10.06 0.11,-4 0.17,-6.56 0.17,-7.61 0,-11.89 -2.78,-20.28 -8.33,-25.17 -7.5,-6.61 -18.67,-9.89 -33.44,-9.89 -13.83,0 -24.06,2.44 -30.61,7.28 -6.61,4.83 -11.44,13.39 -14.61,25.72l-28.67 -4c2.61,-12.28 6.89,-22.22 12.89,-29.78 6,-7.56 14.67,-13.33 26,-17.44 11.28,-4.06 24.44,-6.11 39.33,-6.11 14.78,0 26.83,1.72 36.11,5.22 9.22,3.5 16.06,7.83 20.39,13.11 4.33,5.28 7.39,11.94 9.17,20 0.94,5 1.44,14 1.44,26.94l0 38.89c0,27.17 0.61,44.33 1.83,51.61 1.17,7.28 3.61,14.22 7.17,20.89l-30.67 0c-2.94,-6.17 -4.83,-13.39 -5.67,-21.67zm-2.33 -65c-10.67,4.33 -26.67,8 -48,11 -12.11,1.72 -20.67,3.67 -25.67,5.83 -5,2.17 -8.83,5.33 -11.56,9.44 -2.72,4.17 -4.11,8.78 -4.11,13.89 0,7.72 2.94,14.22 8.89,19.39 5.94,5.17 14.61,7.78 26,7.78 11.28,0 21.33,-2.44 30.17,-7.39 8.78,-4.89 15.28,-11.61 19.39,-20.11 3.17,-6.61 4.72,-16.33 4.72,-29.17l0.17 -10.67z"/>
  <g id="_2525326071936">
   <polyline class="fil0 str1" points="12925.05,6555.91 12925.05,4555.91 13050.05,4555.91 13050.05,6555.91 "/>
   <line class="fil0 str1" x1="9581.3" y1="6555.91" x2="12925.05" y2= "6555.91" />
   <g>
    <path class="fil0 str0" d="M16444.06 6477.17c-42.8,-68.46 -133.85,-299.41 -157.28,-343.42 -58.97,-110.79 -118.18,-253.76 -170.59,-371.4 -55.5,-124.57 -126.48,-249.83 -189.96,-371.4 -32.62,-62.48 -63.45,-123.3 -96.89,-185.7 -25.95,-48.44 -78.57,-138.44 -95.46,-185.7 -15.9,-19.33 -48.13,-80.74 -56.5,-104.18 -33.17,-40.31 -101.23,-174.93 -134.54,-230.99 -83.07,-139.84 -201.63,-341.96 -291.9,-471.04 -49.65,-71 -116.18,-162.44 -158.76,-235.52l-230.04 -294.4c-29.7,-40.39 -180.02,-220.69 -205.83,-244.58 -56.2,-52.04 -139.44,-149.03 -193.72,-199.29l-64.57 -63.41c-72.27,-54.8 -153.96,-130.66 -226,-189.81 -121.83,-100.05 -317.76,-207.21 -456.05,-284.54 -64.25,-35.93 -160.18,-60.14 -230.04,-87.27 -4.89,-8.57 -6.21,-9.91 -12.11,-18.11m-3878.17 3922.94c83.7,-203.26 184.28,-413.66 279.16,-612.06 224.59,-469.63 371.38,-779.29 640.74,-1231.95 61.45,-103.28 126.33,-204.06 188.34,-308 63.28,-106.03 140.89,-204.61 203.13,-307.99 31.01,-35.58 92.51,-122.31 117.04,-163.05l153.36 -199.29c12.97,-21.53 31.09,-39.43 48.43,-58.88 46.74,-63.58 256.34,-295.47 318.83,-353.28l125.11 -122.29c72.83,-55.23 149.15,-125.44 221.97,-184.17 68.22,-55.02 149.64,-106.55 221.97,-153.99 81.1,-53.19 358.29,-197.96 443.94,-205.35 14.04,-16.11 11.19,-7.81 16.15,-27.17l76.69 -4.53c18.39,-6.69 28.16,-4.53 48.43,-4.53 21.42,-7.8 43.15,-10.32 64.57,-18.12l145.29 -13.59c23.62,-8.6 231.77,-5.04 258.3,0l141.26 18.12c14.25,5.19 8.35,4.14 24.21,4.52l141.26 22.65"/>
    <line class="fil0 str1" x1="9595.65" y1="6519.33" x2="9581.3" y2= "6555.91" />
    <line class="fil0 str1" x1="16444.06" y1="6477.15" x2="16478.55" y2= "6555.91" />
   </g>
  </g>
  <circle class="fil0 str1" cx="19619.5" cy="3720.35" r="3515"/>
  <path class="fil1" d="M16994.1 4647.44l56.69 14.32c-11.83,46.44 -33.12,81.75 -63.85,106.12 -30.73,24.37 -68.33,36.6 -112.78,36.6 -45.95,0 -83.35,-9.35 -112.19,-28.15 -28.84,-18.7 -50.72,-45.85 -65.74,-81.36 -15.02,-35.61 -22.57,-73.7 -22.57,-114.48 0,-44.46 8.45,-83.24 25.46,-116.36 17.01,-33.12 41.17,-58.28 72.5,-75.49 31.33,-17.21 65.84,-25.76 103.44,-25.76 42.76,0 78.67,10.84 107.71,32.62 29.14,21.78 49.43,52.31 60.87,91.7l-55.5 13.13c-9.85,-31.03 -24.27,-53.7 -43.07,-67.83 -18.8,-14.22 -42.47,-21.28 -71.01,-21.28 -32.72,0 -60.17,7.86 -82.15,23.57 -21.98,15.72 -37.49,36.9 -46.35,63.35 -8.95,26.56 -13.43,53.91 -13.43,82.06 0,36.3 5.27,68.03 15.81,95.08 10.54,27.15 26.96,47.34 49.23,60.77 22.28,13.43 46.35,20.09 72.31,20.09 31.63,0 58.28,-9.15 80.16,-27.35 21.88,-18.3 36.7,-45.35 44.46,-81.35z"/>
  <path id="1" class="fil1" d="M17094.46 4642.47c0,-57.19 15.91,-99.56 47.84,-127.11 26.56,-22.88 59.08,-34.31 97.37,-34.31 42.47,0 77.28,13.93 104.33,41.77 26.95,27.75 40.48,66.24 40.48,115.27 0,39.78 -5.96,71.01 -17.9,93.79 -11.93,22.78 -29.34,40.48 -52.21,53.11 -22.78,12.63 -47.74,18.9 -74.69,18.9 -43.37,0 -78.37,-13.82 -105.13,-41.57 -26.76,-27.75 -40.08,-67.73 -40.08,-119.85zm53.7 0.1c0,39.58 8.65,69.22 25.96,88.81 17.41,19.69 39.19,29.54 65.54,29.54 26.06,0 47.74,-9.85 65.14,-29.64 17.31,-19.79 25.96,-49.93 25.96,-90.41 0,-38.19 -8.75,-67.13 -26.16,-86.73 -17.41,-19.69 -39.09,-29.54 -64.94,-29.54 -26.36,0 -48.14,9.75 -65.54,29.34 -17.31,19.59 -25.96,49.13 -25.96,88.62z"/>
  <path id="2" class="fil1" d="M17446.04 4797.32l0 -309.71 47.14 0 0 43.96c22.68,-33.71 55.5,-50.52 98.36,-50.52 18.7,0 35.81,3.38 51.42,10.05 15.61,6.66 27.35,15.52 35.11,26.35 7.76,10.84 13.23,23.77 16.31,38.69 1.89,9.75 2.89,26.76 2.89,51.02l0 190.16 -52.51 0 0 -188.17c0,-21.38 -1.99,-37.4 -6.07,-47.94 -4.08,-10.54 -11.34,-19 -21.69,-25.36 -10.34,-6.27 -22.57,-9.45 -36.5,-9.45 -22.28,0 -41.47,7.06 -57.69,21.28 -16.21,14.12 -24.27,41.07 -24.27,80.66l0 168.98 -52.51 0z"/>
  <path id="3" class="fil1" d="M17777.93 4429.73l0 -59.67 52.51 0 0 59.67 -52.51 0zm0 367.59l0 -309.71 52.51 0 0 309.71 -52.51 0z"/>
  <path id="4" class="fil1" d="M18112.8 4683.94l51.32 7.16c-5.67,35.31 -19.99,62.86 -43.16,82.85 -23.18,19.99 -51.72,29.94 -85.44,29.94 -42.27,0 -76.28,-13.82 -101.94,-41.47 -25.76,-27.65 -38.59,-67.23 -38.59,-118.75 0,-33.42 5.57,-62.56 16.61,-87.62 11.04,-24.96 27.85,-43.76 50.52,-56.19 22.57,-12.53 47.14,-18.8 73.8,-18.8 33.52,0 61.07,8.46 82.35,25.46 21.39,17.01 35.11,41.18 41.08,72.41l-50.72 7.76c-4.87,-20.79 -13.43,-36.4 -25.86,-46.94 -12.33,-10.44 -27.25,-15.71 -44.76,-15.71 -26.46,0 -47.94,9.44 -64.55,28.34 -16.51,19 -24.77,48.83 -24.77,89.81 0,41.57 7.96,71.71 23.87,90.51 16.02,18.8 36.8,28.24 62.36,28.24 20.69,0 37.89,-6.26 51.62,-18.9 13.82,-12.53 22.57,-31.93 26.26,-58.08z"/>
  <path id="5" class="fil1" d="M16671.26 5326.73l53.11 -4.77c2.49,21.48 8.35,39.09 17.61,52.91 9.25,13.72 23.57,24.87 42.96,33.42 19.39,8.45 41.28,12.73 65.54,12.73 21.58,0 40.58,-3.19 57.09,-9.65 16.51,-6.46 28.74,-15.31 36.8,-26.56 8.06,-11.24 12.13,-23.47 12.13,-36.6 0,-13.33 -3.88,-24.96 -11.63,-35.01 -7.76,-9.95 -20.59,-18.3 -38.49,-25.17 -11.44,-4.37 -36.8,-11.34 -76.08,-20.79 -39.29,-9.44 -66.74,-18.3 -82.45,-26.65 -20.39,-10.74 -35.5,-24.07 -45.45,-39.88 -10.04,-15.81 -15.02,-33.62 -15.02,-53.21 0,-21.68 6.17,-41.87 18.4,-60.57 12.24,-18.8 30.04,-33.02 53.61,-42.77 23.47,-9.74 49.63,-14.62 78.37,-14.62 31.63,0 59.57,5.07 83.74,15.31 24.17,10.15 42.77,25.17 55.8,45.06 13.03,19.79 19.99,42.27 20.98,67.33l-54.3 4.18c-2.88,-26.95 -12.73,-47.34 -29.54,-61.06 -16.81,-13.83 -41.67,-20.69 -74.49,-20.69 -34.21,0 -59.18,6.27 -74.79,18.8 -15.61,12.53 -23.47,27.65 -23.47,45.35 0,15.31 5.57,27.95 16.61,37.89 10.94,9.85 39.28,20.09 85.23,30.43 45.95,10.44 77.48,19.5 94.59,27.25 24.76,11.44 43.17,25.86 55,43.46 11.83,17.5 17.7,37.69 17.7,60.57 0,22.78 -6.46,44.06 -19.49,64.15 -13.03,20.09 -31.63,35.7 -56,46.85 -24.37,11.14 -51.72,16.71 -82.25,16.71 -38.59,0 -70.91,-5.67 -96.97,-16.91 -26.16,-11.24 -46.55,-28.15 -61.37,-50.82 -14.92,-22.57 -22.68,-48.14 -23.47,-76.68z"/>
  <path id="6" class="fil1" d="M17292.48 5363.73l54.3 7.16c-8.45,31.53 -24.27,56.09 -47.34,73.5 -23.07,17.41 -52.51,26.16 -88.42,26.16 -45.15,0 -80.96,-13.92 -107.41,-41.77 -26.46,-27.75 -39.69,-66.83 -39.69,-117.06 0,-51.92 13.33,-92.3 40.08,-120.94 26.75,-28.74 61.46,-43.07 104.13,-43.07 41.28,0 74.99,14.02 101.15,42.17 26.16,28.15 39.29,67.73 39.29,118.75 0,3.09 -0.1,7.76 -0.3,13.93l-230.64 0c1.99,33.92 11.54,59.97 28.84,77.98 17.2,18 38.79,27.05 64.55,27.05 19.2,0 35.61,-5.07 49.13,-15.22 13.63,-10.15 24.37,-26.36 32.33,-48.63zm-171.86 -84.14l172.46 0c-2.29,-26.06 -8.95,-45.55 -19.79,-58.58 -16.61,-20.19 -38.29,-30.33 -64.85,-30.33 -24.07,0 -44.26,8.06 -60.67,24.17 -16.31,16.11 -25.36,37.7 -27.15,64.75z"/>
  <path id="7" class="fil1" d="M17615.41 5350.6l51.32 7.16c-5.67,35.31 -19.99,62.86 -43.16,82.85 -23.18,19.99 -51.72,29.94 -85.44,29.94 -42.27,0 -76.28,-13.82 -101.94,-41.47 -25.76,-27.65 -38.59,-67.23 -38.59,-118.75 0,-33.42 5.57,-62.56 16.61,-87.62 11.04,-24.96 27.85,-43.76 50.52,-56.19 22.57,-12.53 47.14,-18.8 73.8,-18.8 33.52,0 61.07,8.46 82.35,25.46 21.39,17.01 35.11,41.18 41.08,72.41l-50.72 7.76c-4.87,-20.79 -13.43,-36.4 -25.86,-46.94 -12.33,-10.44 -27.25,-15.71 -44.76,-15.71 -26.46,0 -47.94,9.44 -64.55,28.34 -16.51,19 -24.77,48.83 -24.77,89.81 0,41.57 7.96,71.71 23.87,90.51 16.02,18.8 36.8,28.24 62.36,28.24 20.69,0 37.89,-6.26 51.62,-18.9 13.82,-12.53 22.57,-31.93 26.26,-58.08z"/>
  <path id="8" class="fil1" d="M17825.47 5417.14l7.16 46.35c-14.72,3.08 -27.95,4.67 -39.48,4.67 -19,0 -33.72,-2.98 -44.26,-9.05 -10.44,-6.07 -17.8,-13.93 -22.08,-23.77 -4.28,-9.84 -6.37,-30.53 -6.37,-62.06l0 -178.43 -38.79 0 0 -40.58 38.79 0 0 -76.58 52.52 -31.53 0 108.11 52.51 0 0 40.58 -52.51 0 0 181.41c0,15.02 0.89,24.67 2.78,28.94 1.79,4.28 4.78,7.66 8.95,10.24 4.18,2.49 10.15,3.78 17.9,3.78 5.77,0 13.43,-0.7 22.87,-2.09z"/>
  <path id="9" class="fil1" d="M17877.29 5096.39l0 -59.67 52.51 0 0 59.67 -52.51 0zm0 367.59l0 -309.71 52.51 0 0 309.71 -52.51 0z"/>
  <path id="10" class="fil1" d="M17990.17 5309.13c0,-57.19 15.91,-99.56 47.84,-127.11 26.56,-22.88 59.08,-34.31 97.37,-34.31 42.47,0 77.28,13.93 104.33,41.77 26.95,27.75 40.48,66.24 40.48,115.27 0,39.78 -5.96,71.01 -17.9,93.79 -11.93,22.78 -29.34,40.48 -52.21,53.11 -22.78,12.63 -47.74,18.9 -74.69,18.9 -43.37,0 -78.37,-13.82 -105.13,-41.57 -26.76,-27.75 -40.08,-67.73 -40.08,-119.85zm53.7 0.1c0,39.58 8.65,69.22 25.96,88.81 17.41,19.69 39.19,29.54 65.54,29.54 26.06,0 47.74,-9.85 65.14,-29.64 17.31,-19.79 25.96,-49.93 25.96,-90.41 0,-38.19 -8.75,-67.13 -26.16,-86.73 -17.41,-19.69 -39.09,-29.54 -64.94,-29.54 -26.36,0 -48.14,9.75 -65.54,29.34 -17.31,19.59 -25.96,49.13 -25.96,88.62z"/>
  <path id="11" class="fil1" d="M18341.75 5463.98l0 -309.71 47.14 0 0 43.96c22.68,-33.71 55.5,-50.52 98.36,-50.52 18.7,0 35.81,3.38 51.42,10.05 15.61,6.66 27.35,15.52 35.11,26.35 7.76,10.84 13.23,23.77 16.31,38.69 1.89,9.75 2.89,26.76 2.89,51.02l0 190.16 -52.51 0 0 -188.17c0,-21.38 -1.99,-37.4 -6.07,-47.94 -4.08,-10.54 -11.34,-19 -21.69,-25.36 -10.34,-6.27 -22.57,-9.45 -36.5,-9.45 -22.28,0 -41.47,7.06 -57.69,21.28 -16.21,14.12 -24.27,41.07 -24.27,80.66l0 168.98 -52.51 0z"/>
  <path id="12" class="fil1" d="M18652.76 5371.49l51.92 -8.35c2.88,20.79 11.04,36.7 24.37,47.84 13.33,11.04 32.02,16.61 55.89,16.61 24.17,0 42.07,-4.87 53.81,-14.72 11.64,-9.74 17.5,-21.28 17.5,-34.51 0,-11.83 -5.27,-21.19 -15.71,-27.94 -7.36,-4.68 -25.26,-10.54 -53.71,-17.8 -38.39,-9.65 -64.94,-18 -79.86,-25.06 -14.82,-7.16 -26.06,-16.91 -33.72,-29.44 -7.66,-12.43 -11.54,-26.26 -11.54,-41.37 0,-13.82 3.19,-26.56 9.45,-38.29 6.37,-11.74 14.92,-21.48 25.76,-29.24 8.16,-5.97 19.3,-11.04 33.32,-15.22 14.12,-4.18 29.14,-6.27 45.25,-6.27 24.27,0 45.55,3.48 63.85,10.54 18.4,6.96 31.93,16.51 40.68,28.44 8.65,12.04 14.72,28.05 18,48.14l-51.32 7.16c-2.29,-16.11 -9.05,-28.74 -20.19,-37.8 -11.14,-9.05 -26.85,-13.52 -47.24,-13.52 -23.97,0 -41.17,3.98 -51.42,11.93 -10.24,7.96 -15.42,17.31 -15.42,27.95 0,6.76 2.09,12.93 6.37,18.4 4.28,5.57 10.94,10.24 20.09,13.93 5.27,1.99 20.59,6.46 46.25,13.43 37,9.85 62.85,18 77.57,24.27 14.72,6.27 26.26,15.52 34.61,27.45 8.46,12.03 12.63,26.95 12.63,44.85 0,17.41 -5.07,33.81 -15.32,49.23 -10.24,15.41 -24.96,27.35 -44.16,35.8 -19.3,8.45 -41.07,12.63 -65.34,12.63 -40.18,0 -70.91,-8.35 -92,-24.96 -21.08,-16.71 -34.51,-41.37 -40.38,-74.09z"/>
  <path class="fil1" d="M888.29 6335.23l0 -252.93 50.32 0 60.01 179.04c5.55,16.66 9.57,29.14 12.11,37.44 2.89,-9.19 7.44,-22.72 13.58,-40.57l61.07 -175.92 44.95 0 0 252.93 -32.25 0 0 -211.6 -74.07 211.6 -30.24 0 -73.24 -215.49 0 215.49 -32.25 0z"/>
  <polygon id="1" class="fil1" points="1185.61,6335.23 1185.61,6082.3 1219.27,6082.3 1219.27,6186.51 1350.39,6186.51 1350.39,6082.3 1384.06,6082.3 1384.06,6335.23 1350.39,6335.23 1350.39,6216.19 1219.27,6216.19 1219.27,6335.23 "/>
  <polygon id="2" class="fil1" points="1540.34,6335.23 1540.34,6082.3 1711.5,6082.3 1711.5,6111.97 1574,6111.97 1574,6190.75 1693.07,6190.75 1693.07,6220.42 1574,6220.42 1574,6335.23 "/>
  <path id="3" class="fil1" d="M1739.44 6243.56c0,-33.85 9.45,-58.94 28.41,-75.24 15.77,-13.54 35.08,-20.31 57.83,-20.31 25.22,0 45.89,8.24 61.95,24.73 16.01,16.43 24.04,39.21 24.04,68.24 0,23.55 -3.54,42.04 -10.63,55.52 -7.09,13.48 -17.43,23.96 -31.01,31.44 -13.53,7.48 -28.35,11.19 -44.35,11.19 -25.75,0 -46.54,-8.19 -62.43,-24.61 -15.89,-16.43 -23.8,-40.09 -23.8,-70.94zm31.89 0.06c0,23.43 5.14,40.98 15.42,52.57 10.33,11.66 23.27,17.49 38.92,17.49 15.47,0 28.35,-5.83 38.69,-17.55 10.28,-11.72 15.41,-29.56 15.41,-53.52 0,-22.61 -5.2,-39.74 -15.53,-51.34 -10.34,-11.66 -23.21,-17.49 -38.57,-17.49 -15.65,0 -28.59,5.77 -38.92,17.37 -10.28,11.6 -15.42,29.09 -15.42,52.46z"/>
  <path id="4" class="fil1" d="M2068.36 6335.23l0 -27.26c-14.29,20.78 -33.67,31.15 -58.18,31.15 -10.8,0 -20.9,-2.06 -30.3,-6.18 -9.39,-4.18 -16.36,-9.36 -20.91,-15.6 -4.55,-6.3 -7.74,-13.95 -9.57,-23.02 -1.24,-6.13 -1.89,-15.78 -1.89,-28.97l0 -113.46 31.19 0 0 101.44c0,16.19 0.65,27.14 1.89,32.74 1.95,8.19 6.09,14.54 12.46,19.19 6.32,4.65 14.11,7.01 23.44,7.01 9.33,0 18.07,-2.36 26.22,-7.13 8.15,-4.77 13.94,-11.3 17.36,-19.49 3.37,-8.19 5.08,-20.13 5.08,-35.74l0 -98.03 31.19 0 0 183.34 -27.99 0z"/>
  <path id="5" class="fil1" d="M2145.32 6335.23l0 -183.34 28 0 0 26.02c13.46,-19.96 32.95,-29.91 58.41,-29.91 11.1,0 21.26,2 30.53,5.95 9.28,3.94 16.24,9.19 20.85,15.6 4.61,6.42 7.85,14.07 9.69,22.9 1.12,5.77 1.71,15.84 1.71,30.2l0 112.57 -31.19 0 0 -111.39c0,-12.66 -1.18,-22.14 -3.6,-28.38 -2.42,-6.24 -6.73,-11.25 -12.87,-15.02 -6.14,-3.71 -13.41,-5.59 -21.68,-5.59 -13.23,0 -24.63,4.18 -34.26,12.6 -9.63,8.36 -14.41,24.31 -14.41,47.75l0 100.03 -31.19 0z"/>
  <path id="6" class="fil1" d="M2461.13 6335.23l0 -23.26c-11.63,18.07 -28.76,27.14 -51.39,27.14 -14.65,0 -28.11,-4 -40.34,-12.07 -12.28,-8.01 -21.8,-19.25 -28.59,-33.62 -6.73,-14.43 -10.1,-30.97 -10.1,-49.69 0,-18.25 3.07,-34.8 9.15,-49.69 6.14,-14.84 15.3,-26.26 27.52,-34.15 12.17,-7.95 25.87,-11.89 40.93,-11.89 11.11,0 20.97,2.35 29.59,7.01 8.62,4.65 15.65,10.77 21.09,18.25l0 -90.96 31.19 0 0 252.93 -29.06 0zm-98.52 -91.44c0,23.43 4.96,40.92 14.94,52.52 9.92,11.6 21.68,17.37 35.2,17.37 13.65,0 25.22,-5.54 34.78,-16.61 9.51,-11.07 14.3,-27.96 14.3,-50.69 0,-24.96 -4.84,-43.33 -14.59,-55.05 -9.69,-11.72 -21.68,-17.55 -35.91,-17.55 -13.88,0 -25.45,5.59 -34.78,16.84 -9.28,11.25 -13.94,28.97 -13.94,53.17z"/>
  <path id="7" class="fil1" d="M2659.64 6312.27c-11.57,9.83 -22.74,16.72 -33.43,20.78 -10.69,4.06 -22.15,6.06 -34.43,6.06 -20.2,0 -35.74,-4.89 -46.6,-14.72 -10.87,-9.77 -16.3,-22.31 -16.3,-37.56 0,-8.95 2.07,-17.13 6.14,-24.55 4.14,-7.42 9.51,-13.31 16.13,-17.78 6.68,-4.48 14.12,-7.89 22.44,-10.19 6.14,-1.59 15.42,-3.12 27.76,-4.65 25.16,-2.94 43.76,-6.54 55.63,-10.66 0.12,-4.24 0.18,-6.94 0.18,-8.06 0,-12.6 -2.95,-21.49 -8.86,-26.67 -7.97,-7 -19.85,-10.48 -35.56,-10.48 -14.71,0 -25.58,2.59 -32.54,7.71 -7.03,5.12 -12.17,14.19 -15.54,27.26l-30.48 -4.24c2.78,-13.01 7.33,-23.55 13.7,-31.56 6.38,-8.01 15.59,-14.13 27.64,-18.49 11.99,-4.3 25.99,-6.48 41.81,-6.48 15.71,0 28.53,1.83 38.39,5.54 9.8,3.71 17.07,8.3 21.67,13.89 4.61,5.59 7.86,12.66 9.75,21.2 1,5.3 1.54,14.83 1.54,28.56l0 41.21c0,28.79 0.65,46.98 1.94,54.7 1.24,7.71 3.84,15.07 7.62,22.14l-32.6 0c-3.13,-6.54 -5.14,-14.19 -6.02,-22.96zm-2.48 -68.89c-11.34,4.59 -28.35,8.48 -51.03,11.66 -12.87,1.82 -21.97,3.89 -27.28,6.18 -5.32,2.3 -9.39,5.65 -12.29,10.01 -2.89,4.42 -4.37,9.3 -4.37,14.72 0,8.19 3.13,15.07 9.45,20.55 6.32,5.48 15.53,8.24 27.64,8.24 11.99,0 22.68,-2.59 32.07,-7.83 9.33,-5.18 16.24,-12.31 20.61,-21.31 3.37,-7 5.02,-17.31 5.02,-30.91l0.18 -11.3z"/>
  <path id="8" class="fil1" d="M2804.29 6307.5l4.25 27.44c-8.74,1.83 -16.59,2.77 -23.44,2.77 -11.28,0 -20.02,-1.77 -26.28,-5.36 -6.2,-3.59 -10.57,-8.24 -13.11,-14.07 -2.54,-5.83 -3.78,-18.07 -3.78,-36.74l0 -105.62 -23.03 0 0 -24.02 23.03 0 0 -45.33 31.19 -18.67 0 64 31.19 0 0 24.02 -31.19 0 0 107.39c0,8.89 0.54,14.6 1.65,17.13 1.06,2.53 2.84,4.53 5.32,6.06 2.48,1.47 6.02,2.24 10.63,2.24 3.43,0 7.97,-0.41 13.58,-1.24z"/>
  <path id="9" class="fil1" d="M2835.06 6117.63l0 -35.33 31.19 0 0 35.33 -31.19 0zm0 217.61l0 -183.34 31.19 0 0 183.34 -31.19 0z"/>
  <path id="10" class="fil1" d="M2902.09 6243.56c0,-33.85 9.45,-58.94 28.41,-75.24 15.77,-13.54 35.08,-20.31 57.82,-20.31 25.22,0 45.89,8.24 61.96,24.73 16.01,16.43 24.04,39.21 24.04,68.24 0,23.55 -3.54,42.04 -10.63,55.52 -7.09,13.48 -17.43,23.96 -31.01,31.44 -13.53,7.48 -28.35,11.19 -44.36,11.19 -25.75,0 -46.54,-8.19 -62.43,-24.61 -15.89,-16.43 -23.8,-40.09 -23.8,-70.94zm31.9 0.06c0,23.43 5.14,40.98 15.41,52.57 10.33,11.66 23.27,17.49 38.92,17.49 15.48,0 28.35,-5.83 38.69,-17.55 10.28,-11.72 15.42,-29.56 15.42,-53.52 0,-22.61 -5.2,-39.74 -15.54,-51.34 -10.33,-11.66 -23.21,-17.49 -38.57,-17.49 -15.65,0 -28.59,5.77 -38.92,17.37 -10.28,11.6 -15.41,29.09 -15.41,52.46z"/>
  <path id="11" class="fil1" d="M3110.88 6335.23l0 -183.34 28 0 0 26.02c13.46,-19.96 32.95,-29.91 58.41,-29.91 11.1,0 21.26,2 30.53,5.95 9.27,3.94 16.24,9.19 20.85,15.6 4.61,6.42 7.85,14.07 9.69,22.9 1.12,5.77 1.71,15.84 1.71,30.2l0 112.57 -31.19 0 0 -111.39c0,-12.66 -1.18,-22.14 -3.6,-28.38 -2.42,-6.24 -6.73,-11.25 -12.87,-15.02 -6.14,-3.71 -13.41,-5.59 -21.68,-5.59 -13.23,0 -24.63,4.18 -34.26,12.6 -9.63,8.36 -14.41,24.31 -14.41,47.75l0 100.03 -31.19 0z"/>
  <path class="fil1" d="M986.26 805.52l31.67 8c-6.61,25.94 -18.5,45.67 -35.67,59.28 -17.17,13.61 -38.17,20.44 -63,20.44 -25.67,0 -46.56,-5.22 -62.67,-15.72 -16.11,-10.44 -28.33,-25.61 -36.72,-45.44 -8.39,-19.89 -12.61,-41.17 -12.61,-63.94 0,-24.83 4.72,-46.5 14.22,-65 9.5,-18.5 23,-32.56 40.5,-42.17 17.5,-9.61 36.78,-14.39 57.78,-14.39 23.89,0 43.94,6.06 60.17,18.22 16.28,12.17 27.61,29.22 34,51.22l-31 7.33c-5.5,-17.33 -13.56,-30 -24.06,-37.89 -10.5,-7.94 -23.72,-11.89 -39.67,-11.89 -18.28,0 -33.61,4.39 -45.89,13.17 -12.28,8.78 -20.94,20.61 -25.89,35.39 -5,14.83 -7.5,30.11 -7.5,45.83 0,20.28 2.94,38 8.83,53.11 5.89,15.17 15.06,26.44 27.5,33.94 12.44,7.5 25.89,11.22 40.39,11.22 17.67,0 32.56,-5.11 44.78,-15.28 12.22,-10.22 20.5,-25.33 24.83,-45.44z"/>
  <path id="1" class="fil1" d="M1166.32 889.24l0 -25.72c-13.44,19.61 -31.67,29.39 -54.72,29.39 -10.17,0 -19.67,-1.94 -28.5,-5.83 -8.83,-3.94 -15.39,-8.83 -19.67,-14.72 -4.28,-5.94 -7.28,-13.17 -9,-21.72 -1.17,-5.78 -1.78,-14.89 -1.78,-27.33l0 -107.06 29.33 0 0 95.72c0,15.28 0.61,25.61 1.78,30.89 1.83,7.72 5.72,13.72 11.72,18.11 5.94,4.39 13.28,6.61 22.06,6.61 8.78,0 17,-2.22 24.67,-6.72 7.67,-4.5 13.11,-10.67 16.33,-18.39 3.17,-7.72 4.78,-19 4.78,-33.72l0 -92.5 29.33 0 0 173 -26.33 0z"/>
  <path id="2" class="fil1" d="M1302.37 863.07l4 25.89c-8.22,1.72 -15.61,2.61 -22.06,2.61 -10.61,0 -18.83,-1.67 -24.72,-5.06 -5.83,-3.39 -9.94,-7.78 -12.33,-13.28 -2.39,-5.5 -3.56,-17.06 -3.56,-34.67l0 -99.67 -21.67 0 0 -22.67 21.67 0 0 -42.78 29.33 -17.61 0 60.39 29.33 0 0 22.67 -29.33 0 0 101.33c0,8.39 0.5,13.78 1.56,16.17 1,2.39 2.67,4.28 5,5.72 2.33,1.39 5.67,2.11 10,2.11 3.22,0 7.5,-0.39 12.78,-1.17z"/>
  <path id="3" class="fil1" d="M1423.93 683.91l0 -33.33 29.33 0 0 33.33 -29.33 0zm0 205.33l0 -173 29.33 0 0 173 -29.33 0z"/>
  <path id="4" class="fil1" d="M1497.98 889.24l0 -173 26.33 0 0 24.56c12.67,-18.83 31,-28.22 54.94,-28.22 10.44,0 20,1.89 28.72,5.61 8.72,3.72 15.28,8.67 19.61,14.72 4.33,6.06 7.39,13.28 9.11,21.61 1.06,5.44 1.61,14.94 1.61,28.5l0 106.22 -29.33 0 0 -105.11c0,-11.94 -1.11,-20.89 -3.39,-26.78 -2.28,-5.89 -6.33,-10.61 -12.11,-14.17 -5.78,-3.5 -12.61,-5.28 -20.39,-5.28 -12.44,0 -23.17,3.94 -32.22,11.89 -9.06,7.89 -13.56,22.94 -13.56,45.06l0 94.39 -29.33 0z"/>
  <path id="5" class="fil1" d="M1747.04 863.07l4 25.89c-8.22,1.72 -15.61,2.61 -22.06,2.61 -10.61,0 -18.83,-1.67 -24.72,-5.06 -5.83,-3.39 -9.94,-7.78 -12.33,-13.28 -2.39,-5.5 -3.56,-17.06 -3.56,-34.67l0 -99.67 -21.67 0 0 -22.67 21.67 0 0 -42.78 29.33 -17.61 0 60.39 29.33 0 0 22.67 -29.33 0 0 101.33c0,8.39 0.5,13.78 1.56,16.17 1,2.39 2.67,4.28 5,5.72 2.33,1.39 5.67,2.11 10,2.11 3.22,0 7.5,-0.39 12.78,-1.17z"/>
  <path id="6" class="fil1" d="M1764.98 802.74c0,-31.94 8.89,-55.61 26.72,-71 14.83,-12.78 33,-19.17 54.39,-19.17 23.72,0 43.17,7.78 58.28,23.33 15.06,15.5 22.61,37 22.61,64.39 0,22.22 -3.33,39.67 -10,52.39 -6.67,12.72 -16.39,22.61 -29.17,29.67 -12.72,7.06 -26.67,10.56 -41.72,10.56 -24.22,0 -43.78,-7.72 -58.72,-23.22 -14.94,-15.5 -22.39,-37.83 -22.39,-66.94zm30 0.06c0,22.11 4.83,38.67 14.5,49.61 9.72,11 21.89,16.5 36.61,16.5 14.56,0 26.67,-5.5 36.39,-16.56 9.67,-11.06 14.5,-27.89 14.5,-50.5 0,-21.33 -4.89,-37.5 -14.61,-48.44 -9.72,-11 -21.83,-16.5 -36.28,-16.5 -14.72,0 -26.89,5.44 -36.61,16.39 -9.67,10.94 -14.5,27.44 -14.5,49.5z"/>
  <path id="7" class="fil1" d="M914.59 1261.63l-29.33 0 0 -186.78c-7.06,6.78 -16.33,13.5 -27.78,20.22 -11.44,6.72 -21.78,11.78 -30.89,15.11l0 -28.33c16.39,-7.67 30.72,-17 43,-28 12.28,-10.94 21,-21.56 26.11,-31.89l18.89 0 0 239.67z"/>
  <polygon id="8" class="fil1" points="975.98,1265.63 1045.32,1018.96 1068.93,1018.96 999.59,1265.63 "/>
  <path id="9" class="fil1" d="M1127.76 1132.24c-12.17,-4.44 -21.17,-10.83 -27.06,-19.06 -5.83,-8.28 -8.78,-18.17 -8.78,-29.67 0,-17.39 6.22,-31.94 18.67,-43.78 12.5,-11.83 29.06,-17.78 49.78,-17.78 20.78,0 37.56,6.06 50.22,18.17 12.67,12.11 19,26.83 19,44.22 0,11.06 -2.89,20.72 -8.67,28.89 -5.78,8.22 -14.56,14.56 -26.39,19 14.61,4.78 25.67,12.44 33.28,23.11 7.61,10.61 11.44,23.28 11.44,38.06 0,20.39 -7.22,37.5 -21.61,51.39 -14.44,13.89 -33.39,20.83 -56.89,20.83 -23.5,0 -42.44,-6.94 -56.89,-20.89 -14.39,-13.94 -21.61,-31.33 -21.61,-52.17 0,-15.5 3.94,-28.5 11.83,-38.94 7.89,-10.5 19.11,-17.61 33.67,-21.39zm-5.83 -49.78c0,11.33 3.61,20.56 10.78,27.72 7.22,7.17 16.67,10.78 28.39,10.78 11.39,0 20.61,-3.56 27.78,-10.67 7.17,-7.11 10.72,-15.83 10.72,-26.17 0,-10.78 -3.67,-19.83 -11.06,-27.17 -7.33,-7.33 -16.61,-11 -27.78,-11 -11.28,0 -20.56,3.61 -27.89,10.78 -7.28,7.17 -10.94,15.72 -10.94,25.72zm-9.67 110.33c0,8.39 1.94,16.44 5.83,24.28 3.89,7.78 9.78,13.83 17.67,18.11 7.83,4.28 16.28,6.44 25.22,6.44 14.11,0 25.67,-4.5 34.72,-13.5 9.06,-9 13.56,-20.44 13.56,-34.33 0,-14.11 -4.67,-25.78 -13.94,-35 -9.33,-9.22 -21.11,-13.83 -35.28,-13.83 -13.89,0 -25.28,4.56 -34.28,13.67 -9,9.11 -13.5,20.5 -13.5,34.17z"/>
  <path id="10" class="fil1" d="M1391.59 1062.96l0 34 -31.33 0 0 -27c0,-14.44 1.72,-24.94 5.22,-31.39 4.61,-8.67 11.83,-15.17 21.78,-19.61l7 11.39c-6,2.5 -10.39,6.17 -13.22,11.11 -2.78,4.94 -4.39,12.11 -4.72,21.5l15.28 0zm50.33 0l0 34 -31.33 0 0 -27c0,-14.44 1.72,-24.94 5.22,-31.39 4.61,-8.67 11.83,-15.17 21.78,-19.61l7 11.39c-6,2.5 -10.39,6.17 -13.22,11.11 -2.78,4.94 -4.39,12.11 -4.72,21.5l15.28 0z"/>
  <path id="11" class="fil1" d="M1603.31 1261.63l-52.28 -173 30.67 0 27.61 99.83 9.78 37.17c0.39,-1.83 3.39,-13.72 8.94,-35.67l27.39 -101.33 30.06 0 26.06 100.44 8.5 32.94 9.94 -33.39 29.89 -100 28.5 0 -54.28 173 -30.33 0 -27.44 -103.5 -6.94 -29.61 -35 133.11 -31.06 0z"/>
  <path id="12" class="fil1" d="M1801.93 1175.13c0,-31.94 8.89,-55.61 26.72,-71 14.83,-12.78 33,-19.17 54.39,-19.17 23.72,0 43.17,7.78 58.28,23.33 15.06,15.5 22.61,37 22.61,64.39 0,22.22 -3.33,39.67 -10,52.39 -6.67,12.72 -16.39,22.61 -29.17,29.67 -12.72,7.06 -26.67,10.56 -41.72,10.56 -24.22,0 -43.78,-7.72 -58.72,-23.22 -14.94,-15.5 -22.39,-37.83 -22.39,-66.94zm30 0.06c0,22.11 4.83,38.67 14.5,49.61 9.72,11 21.89,16.5 36.61,16.5 14.56,0 26.67,-5.5 36.39,-16.56 9.67,-11.06 14.5,-27.89 14.5,-50.5 0,-21.33 -4.89,-37.5 -14.61,-48.44 -9.72,-11 -21.83,-16.5 -36.28,-16.5 -14.72,0 -26.89,5.44 -36.61,16.39 -9.67,10.94 -14.5,27.44 -14.5,49.5z"/>
  <path id="13" class="fil1" d="M1987.32 1175.13c0,-31.94 8.89,-55.61 26.72,-71 14.83,-12.78 33,-19.17 54.39,-19.17 23.72,0 43.17,7.78 58.28,23.33 15.06,15.5 22.61,37 22.61,64.39 0,22.22 -3.33,39.67 -10,52.39 -6.67,12.72 -16.39,22.61 -29.17,29.67 -12.72,7.06 -26.67,10.56 -41.72,10.56 -24.22,0 -43.78,-7.72 -58.72,-23.22 -14.94,-15.5 -22.39,-37.83 -22.39,-66.94zm30 0.06c0,22.11 4.83,38.67 14.5,49.61 9.72,11 21.89,16.5 36.61,16.5 14.56,0 26.67,-5.5 36.39,-16.56 9.67,-11.06 14.5,-27.89 14.5,-50.5 0,-21.33 -4.89,-37.5 -14.61,-48.44 -9.72,-11 -21.83,-16.5 -36.28,-16.5 -14.72,0 -26.89,5.44 -36.61,16.39 -9.67,10.94 -14.5,27.44 -14.5,49.5z"/>
  <path id="14" class="fil1" d="M2295.37 1261.63l0 -21.94c-10.94,17.06 -27.06,25.61 -48.33,25.61 -13.78,0 -26.44,-3.78 -37.94,-11.39 -11.56,-7.56 -20.5,-18.17 -26.89,-31.72 -6.33,-13.61 -9.5,-29.22 -9.5,-46.89 0,-17.22 2.89,-32.83 8.61,-46.89 5.78,-14 14.39,-24.78 25.89,-32.22 11.44,-7.5 24.33,-11.22 38.5,-11.22 10.44,0 19.72,2.22 27.83,6.61 8.11,4.39 14.72,10.17 19.83,17.22l0 -85.83 29.33 0 0 238.67 -27.33 0zm-92.67 -86.28c0,22.11 4.67,38.61 14.06,49.56 9.33,10.94 20.39,16.39 33.11,16.39 12.83,0 23.72,-5.22 32.72,-15.67 8.94,-10.44 13.44,-26.39 13.44,-47.83 0,-23.56 -4.56,-40.89 -13.72,-51.94 -9.11,-11.06 -20.39,-16.56 -33.78,-16.56 -13.06,0 -23.94,5.28 -32.72,15.89 -8.72,10.61 -13.11,27.33 -13.11,50.17z"/>
 </g>
</svg>
